<svg xmlns="http://www.w3.org/2000/svg" id="Layer_1" viewBox="0 0 512 512"><defs><style>      .st0 {        fill: #144499;      }    </style></defs><path class="st0" d="M320,333.33c0-50.07-40.59-90.67-90.67-90.67s-90.67,40.59-90.67,90.67c0,17.67,14.33,32,32,32s32-14.33,32-32c0-14.73,11.94-26.67,26.67-26.67s26.67,11.94,26.67,26.67c0,13.33-25.43,32.41-45.87,47.72-33.49,25.13-71.47,53.61-71.47,98.94,0,17.67,14.33,32,32,32h117.33c17.67,0,32-14.33,32-32s-14.33-32-32-32h-59.73c6.61-5.42,13.76-10.67,20.37-15.72,33.39-25.13,71.36-53.61,71.36-98.94Z"></path><path class="st0" d="M480,234.67c-17.67,0-32,14.33-32,32v96h-16c-14.72-.02-26.64-11.95-26.67-26.67v-69.33c0-17.67-14.33-32-32-32s-32,14.33-32,32v69.33c.06,50.05,40.62,90.61,90.67,90.67h16v53.33c0,17.67,14.33,32,32,32s32-14.33,32-32v-213.33c0-17.67-14.33-32-32-32Z"></path><path class="st0" d="M475.58,57.75l-28.22,28.22C353.45-19.72,191.64-29.27,85.95,64.64-3.58,144.19-25.99,275.18,32,379.97c8.57,15.46,28.05,21.04,43.51,12.47,15.46-8.57,21.04-28.05,12.47-43.51h0c-51.36-92.66-17.88-209.42,74.78-260.78,79.85-44.26,179.83-26.11,239.03,43.39l-24.04,24.04c-8.33,8.33-8.33,21.84,0,30.17,4,4,9.42,6.24,15.08,6.25h97.83c11.78,0,21.33-9.55,21.33-21.33v-97.83c0-11.78-9.56-21.33-21.34-21.33-5.66,0-11.08,2.25-15.08,6.25h0Z"></path></svg>