<svg xmlns="http://www.w3.org/2000/svg" id="Layer_1" viewBox="0 0 512 512"><defs><style>      .st0 {        fill: #144499;      }    </style></defs><path class="st0" d="M512.28,327.06l-11.16-90.26c-.69-38.58-24.55-72.94-60.46-87.06l-84.39-35.01c-36.72-14.59-78.51-7.38-108.22,18.67l-78.4,58.15c-21.34,19.4-38.07,43.33-48.96,70.04,0,0-9.13,16.43-9.49,17.3-6.55,17.89-5.88,37.63,1.86,55.04,3.61,8.49,8.87,16.18,15.49,22.61l-.7,1.75c-11.57,27.1,1.02,58.45,28.12,70.02,27.1,11.57,58.45-1.02,70.02-28.12l102.4,41.07c-9.44,27.9,5.52,58.17,33.42,67.62,26.77,9.06,55.96-4.34,66.55-30.54l.3-.75c27.11,1.05,51.95-15.07,62.04-40.26l8.79-22.19c11.08-27.96,15.47-58.13,12.82-88.09ZM274.99,166.4c17.77-16.05,43.06-20.73,65.41-12.12l84.37,34.99c20.93,8.45,34.44,28.99,33.9,51.56,0,.26,8.94,72.28,8.94,72.28l-253.67-101.4,61.06-45.31ZM173.46,387.9h-.21l.43.17-.21-.17ZM374.61,468.57h-.19l.36.13-.17-.13ZM451.03,421.63c-4.32,10.86-16.57,16.22-27.48,12.03l-260.67-104.73c-4.96-2.47-8.78-6.75-10.67-11.97-3.04-6.69-3.65-14.24-1.73-21.33,0,0,8.98-16.15,9.32-17.07,4.97-12.42,11.54-24.15,19.54-34.88l34.56,13.82-6.93,17.07c-4.43,10.92.83,23.37,11.75,27.8,10.92,4.43,23.37-.83,27.8-11.75l7-17.28,141.82,56.68-7.04,17.34c-4.43,10.92.83,23.37,11.75,27.8,10.92,4.43,23.37-.83,27.8-11.75l7.1-17.54,34.6,13.82c-1.42,13.54-4.68,26.83-9.71,39.49l-8.83,22.44ZM85.33,234.67c0,11.78-9.55,21.33-21.33,21.33H21.33C9.55,256,0,246.44,0,234.66c0-4.99,1.75-9.81,4.94-13.65l33.94-40.73c4.66-5.55,4.66-13.65,0-19.2L4.95,120.32c-7.54-9.05-6.31-22.5,2.74-30.05,3.83-3.19,8.66-4.94,13.65-4.94h49.07c8.22-.06,14.88-6.71,14.93-14.93V21.33C85.34,9.55,94.89,0,106.67,0c4.99,0,9.81,1.75,13.65,4.94l40.73,33.94c5.55,4.66,13.65,4.66,19.2,0L221.01,4.95c9.05-7.54,22.5-6.31,30.05,2.74,3.19,3.83,4.94,8.66,4.94,13.65v42.67c.02,11.78-9.51,21.35-21.3,21.37-10.76.02-19.84-7.97-21.2-18.64l-5.91,4.93c-21.38,17.86-52.48,17.86-73.86,0l-5.74-4.78v3.52c-.08,31.78-25.82,57.52-57.6,57.6h-3.52l4.78,5.74c17.86,21.38,17.86,52.48,0,73.86l-4.93,5.91c10.64,1.37,18.61,10.43,18.6,21.16Z"></path></svg>