<svg xmlns="http://www.w3.org/2000/svg" id="Layer_1" viewBox="0 0 24 24"><defs><style>      .st0 {        fill: #144499;      }    </style></defs><path class="st0" d="M21,6c-1.33-.99-2.79-1.78-4.35-2.34l-2.15-.77v-.62c0-.49-.24-.94-.64-1.21-.51-.34-1.18-.32-1.67.05l-1.18.89h-1l-.92-1.33c-.3-.43-.78-.67-1.28-.67-.31-.02-.68.15-.97.26-.6.23-1,.8-1,1.44,0,.47.18,1.27-.02,1.34-.02,0-.05.01-.07.01-.21,0-.45-.27-.67-.58-.22-.32-.58-.49-.94-.49-.21,0-.43.06-.62.19-.31.21-.5.56-.5.94v2.4l-1.28.96c-.45.34-.72.87-.72,1.43,0,.68.38,1.3.99,1.6.42.2.95.53,1.43.51h2.58v1c0,.55.45,1,1,1h1v1c0,.5.5,1,1,1v1.26c0,.8.32,1.56.88,2.12l1.12,1.12v1s-.96.59-1.5,1c-.59.45-.67,1.32-.18,1.86.35.39,1.09.94,1.5,1.27.63.51,1.55.5,2.14-.07.78-.75,1.88-2.42,2.32-4.16.37-1.32.86-2.23,2.21-2.4.38-.05,2.5-1.38,2.5-4.5v-.5c.34-.34,1.49-1.12,2.27-1.76.46-.38.73-.95.73-1.55v-.69c0-1.11-.9-2-2-2h0ZM19.9,9.53c-.64.47-1.04.77-1.32,1.05-.52.49-.63,1.23-.59,1.91,0,1.61-.81,2.36-1.09,2.57-2.64.51-3.3,2.88-3.56,3.84-.11.43-.28.87-.47,1.27.08-.21.12-.44.12-.68v-1c0-.53-.21-1.04-.59-1.41l-1.12-1.12c-.19-.19-.29-.44-.29-.71v-1.26c0-.74-.4-1.39-1-1.73v-.27c0-1.11-.89-2-2-2,0-1.11-.89-2-2-2h-2.53l-.28-.14,1.01-.76c.5-.38.8-.97.8-1.6v-.57c.22.07.47.12.73.12s.51-.05.76-.13c1.29-.47,1.42-1.69,1.4-2.45l.46.67c.37.54.99.86,1.64.86h1c.43,0,.85-.14,1.2-.4l.34-.26c.15.66.63,1.2,1.28,1.44l2.15.77c1.37.49,2.66,1.18,3.83,2.05.35.26.77.4,1.2.4v.69c-.31.26-.71.55-1.1.84h0Z"></path></svg>