<svg xmlns="http://www.w3.org/2000/svg" id="Camada_1" viewBox="0 0 491.52 491.52"><defs><style>      .st0 {        fill: #144499;      }    </style></defs><path class="st0" d="M482.14,377.46v4.61c-2.76,2.57-5.21,4.04-8.59,5.69-28.3,13.81-60.7,23.17-89.28,36.89l-4.33.73,85.59-65.01c8.73-2.75,12.31,11.99,16.61,17.1Z"></path><path class="st0" d="M300.75,111.13v268.18h35.45c4.21,0,6.64,8.02,6.94,11.49,1.02,12.02,1.15,36.06-.05,47.94-.67,6.62-3.55,10.41-10.54,10.65-43.9-2.67-91.85,3.5-135.27-.15-10.76-.91-20.05-4.66-29.74-8.94-45.86-20.23-91.72-44.68-136.58-66.97-11.38-9.98-19.21-23.26-20.29-38.68-4.12-58.76,3.16-122.32.06-181.58,3.49-28.51,21.98-37.84,44.77-49.19,35.9-17.87,78.07-39.92,114.8-54.66,9.41-3.78,18.44-6.59,28.67-7.25,43.45-2.78,89.82,2.19,133.58,0,6.99.24,9.87,4.03,10.54,10.65,1.17,11.54,1.08,35.39.05,47.02-.22,2.5-.83,5.77-2.36,7.78-.68.89-4.92,3.71-5.51,3.71h-34.53ZM253.47,130.16c28.88-28.9-15.06-74.04-44.83-44.41-29.15,29.01,15.62,73.65,44.83,44.41ZM165.4,99.15c-25.13,12.24-50.84,23.54-75.83,36.07-13.83,6.94-32.35,12.86-35.33,30.07.44,49.71-4.59,104.26-1.21,153.69,1.25,18.35,6.58,23.87,22.09,32.26,27.88,15.08,59.51,26.14,87.48,41.47l2.8.42V99.15ZM227.81,352.84c-42.4,4.09-34.33,68.07,8.88,62.33,36.62-4.86,33.32-66.4-8.88-62.33Z"></path><path class="st0" d="M381.78,437.35c.38-1.79,1.85-1.62,3.22-1.84,22.18-3.6,52.43-8.05,74.55-9.25,9.18-.5,12.72-2.15,13.42,7.84.46,6.54.47,14.24-7.85,14.33l-83.34-11.07Z"></path><path class="st0" d="M376.26,401.42l9.76-13.72,42.26-53.54c4.45-6.28,17.26,8.74,17.02,12.37-.12,1.82-1.46,3.48-2.72,4.71-21.34,14.48-41.4,34.72-62.72,48.73-1.12.74-2.09,1.72-3.6,1.46Z"></path></svg>