<svg xmlns="http://www.w3.org/2000/svg" id="Camada_1" viewBox="0 0 220.74 220.74"><defs><style>      .st0 {        fill: #144499;      }    </style></defs><g><path class="st0" d="M2.33,107.78c2.05-3.5,10.3-13.12,14.05-13.72,8.08-1.28,9.64,5.37,15.31,8.98l1.08-.52L98.37,36.87c.41-.57.27-.98,0-1.57-.98-2.12-6.56-5.5-7.98-8.45-.89-1.85-1.05-4.04-.73-6.08.41-2.6,7.46-9.57,9.74-11.42,3.65-2.97,6.95-3.77,11.13-1.05,14.07,16.14,34.14,28.62,42.06,49.2,2.35-.2,3.43-2.39,6.14-2.62,4.79-.41,12.38,6.25,12.41,10.82.04,5.94-6.9,7.03-10.56,10.11,4.03,13.25,15.57,25.38,4.71,38.58-18.85,16.6-35.78,38.69-54.76,54.76-13.76,11.65-25.15.1-39.11-4.18-3.47,4.56-5.21,12.99-12.87,10.1-2.62-.99-7.27-6.37-7.85-9.08-.94-4.42,1.34-5.49,2.41-9.02-2.19-.47-4.23-1.48-6.17-2.56-11.65-6.48-33.79-28.61-42.78-39.22-.74-.88-1.02-1.91-1.84-2.66v-4.76ZM117.51,40.69l-18.79,18.79c-1.78,2.87,8.79,12.44,10.34,12.76,1.85.38,2.51-.22,3.85-1.22,3.29-2.46,12.92-12.27,15.6-15.61,2.33-2.91,2.58-3.57.24-6.6-1.9-2.47-8.09-9.07-11.25-8.11ZM142.39,67.67c-.91.12-2.28,1.14-3.04,1.74l-74.33,74.33c-1.95,2.51-2.48,3.98-.22,6.6,10.33,3.91,21.51,10.39,31.96,13.53,4.98,1.5,8.21.65,12.2-2.65,16.65-13.74,31.59-33.83,48.14-48.15,2.8-3.16,3.9-7.62,2.62-11.63-5.13-8.78-7.97-23.52-13.37-31.59-.92-1.37-2.13-2.42-3.95-2.17ZM56.65,102.62c-.89.04-1.79.65-2.5,1.17-2.8,2.03-14.51,13.83-16.65,16.68-.86,1.14-1.52,1.73-1.23,3.32.2,1.11,7.59,8.73,8.89,9.67,2.51,1.82,3.58,1.25,5.86-.54,3.11-2.43,13.33-12.54,15.61-15.61.97-1.31,1.62-2.15,1.32-3.95-.15-.86-8.04-8.94-9.27-9.81-.66-.47-1.12-.97-2.02-.93Z"></path><path class="st0" d="M210.68,94.15c5.58-.46,7.86,6.52,2.06,8.97-3.59,1.52-20,5.41-23.92,5.71-6.36.48-8.1-6.25-3.28-8.57,2.78-1.34,21.77-5.83,25.14-6.11Z"></path><path class="st0" d="M183.12,114.24c1.37-.31,2.52-.16,3.86.15,2.91.66,18.42,7.05,21,8.62,4.77,2.92,3.24,8.66-2.1,8.99-6.79-3.31-16.72-5.5-22.99-9.3-3.77-2.29-3.95-7.51.22-8.46Z"></path><path class="st0" d="M176.27,125.33c1.44-.19,3.02.53,4.05,1.53,1.22,1.2,11.89,18.39,12.59,20.21,2.09,5.44-3.26,8.92-7.52,5.41l-12.55-20.24c-1.61-2.84.19-6.49,3.44-6.91Z"></path></g><rect class="st0" x="12.9" y="193.11" width="205.51" height="11.72" rx="4.77" ry="4.77"></rect></svg>