<svg xmlns="http://www.w3.org/2000/svg" id="Layer_1" viewBox="0 0 512 512"><defs><style>      .st0 {        fill: #144499;      }    </style></defs><path class="st0" d="M442.45,219.99l-91.73-131.65c-19.95-28.63-52.65-45.69-87.55-45.67h-81.83c-44.28.15-83.9,27.51-99.73,68.86l-44.2,116.57C14.01,243.97,0,270.4,0,298.67v32c.04,25.33,17.85,47.16,42.67,52.27v11.73c0,41.24,33.43,74.67,74.67,74.67s74.67-33.43,74.67-74.67v-10.67h128v10.67c0,41.24,33.43,74.67,74.67,74.67s74.67-33.43,74.67-74.67v-11.73c24.81-5.11,42.63-26.93,42.67-52.27v-10.67c-.06-44.58-27.78-84.43-69.55-100.01ZM315.73,112.73l70.06,100.61h-151.13V85.33h28.5c20.95-.02,40.58,10.21,52.57,27.39ZM121.6,126.66c9.48-24.78,33.2-41.19,59.73-41.32h10.67v128h-103.38l32.98-86.68ZM149.33,394.67c0,17.67-14.33,32-32,32s-32-14.33-32-32v-10.67h64v10.67ZM394.67,426.67c-17.67,0-32-14.33-32-32v-10.67h64v10.67c0,17.67-14.33,32-32,32ZM469.33,330.67c0,5.89-4.78,10.67-10.67,10.67H53.33c-5.89,0-10.67-4.78-10.67-10.67v-32c0-23.56,19.1-42.67,42.67-42.67h320c35.35,0,64,28.65,64,64v10.67Z"></path></svg>