<svg xmlns="http://www.w3.org/2000/svg" id="Layer_1" viewBox="0 0 24 24"><defs><style>      .st0 {        fill: #144499;      }    </style></defs><path class="st0" d="M22.83,9.91l-3.4-3.4C18.94,2.83,15.76,0,12,0,8.77,0,5.98,2.04,4.94,5.03c-.21.02-.42.05-.62.1C2.18,5.57.48,7.32.09,9.48c-.36,2.01.36,3.97,1.91,5.23v.28c0,.27.11.52.29.71l.79.79-.79.79c-.39.39-.39,1.02,0,1.41l.79.79-.79.79c-.19.19-.29.44-.29.71s.11.52.29.71l1.65,1.65c.43.43.99.65,1.56.65s1.13-.22,1.56-.65l1.06-1.06c.57-.57.88-1.32.88-2.12v-5.43c1.26-1.04,2-2.59,2-4.24s-.74-3.22-2.03-4.27c-.59-.47-1.26-.81-1.96-1.01.88-1.93,2.8-3.22,5-3.22,2.72,0,5.01,2.03,5.41,4.67l-3.24,3.24c-.74.74-1.17,1.77-1.17,2.83v7.26c0,2.21,1.79,4,4,4h3c2.21,0,4-1.79,4-4v-7.26c0-1.05-.43-2.08-1.17-2.83h0ZM9,10.5c0,1.17-.58,2.26-1.56,2.91-.28.19-.44.5-.44.83v5.93c0,.26-.11.52-.29.71l-1.06,1.06c-.07.07-.22.07-.29,0l-.94-.94.79-.79c.39-.39.39-1.02,0-1.41l-.79-.79.79-.79c.39-.39.39-1.02,0-1.41l-1.21-1.21v-.37c0-.33-.17-.64-.44-.83-1.18-.79-1.75-2.15-1.5-3.54.25-1.37,1.32-2.48,2.67-2.76,1.09-.23,2.14.02,2.97.7.82.67,1.29,1.66,1.29,2.72h0ZM22,20c0,1.1-.9,2-2,2h-3c-1.1,0-2-.9-2-2v-7.26c0-.53.21-1.04.59-1.41l2.91-2.91,2.91,2.91c.37.37.59.89.59,1.41v7.26ZM5.5,8c.83,0,1.5.67,1.5,1.5s-.67,1.5-1.5,1.5-1.5-.67-1.5-1.5.67-1.5,1.5-1.5Z"></path></svg>