<svg xmlns="http://www.w3.org/2000/svg" id="Layer_1" viewBox="0 0 512 512"><defs><style>      .st0 {        fill: #144499;      }    </style></defs><path class="st0" d="M470.48,251.18c-14.62-35.07-48.63-57.74-86.62-57.74h-90.35c-37.99,0-72,22.67-86.62,57.74l-16.74,40.18c-12.14,29.11-18.27,59.82-18.27,91.37s16.93,56.78,41.7,70.85v10.93c0,23,18.7,41.7,41.7,41.7s41.7-18.7,41.7-41.7h83.41c0,23,18.7,41.7,41.7,41.7s41.7-18.7,41.7-41.7v-10.93c24.77-14.07,41.7-40.39,41.7-70.85s-6.15-62.26-18.27-91.37l-16.74-40.18h-.02ZM245.39,267.24c8.13-19.5,27-32.09,48.12-32.09h90.35c21.12,0,39.99,12.59,48.12,32.09l12.7,30.46h-211.99s12.7-30.46,12.7-30.46ZM423.73,422.81h-170.08c-22.1,0-40.06-17.97-40.06-40.08,0-14.72,1.81-29.17,5.03-43.33h36.68v20.85c0,11.53,9.34,20.85,20.85,20.85s20.85-9.32,20.85-20.85v-20.85h83.41v20.85c0,11.53,9.34,20.85,20.85,20.85s20.85-9.32,20.85-20.85v-20.85h36.68c3.21,14.16,5.03,28.61,5.03,43.33,0,22.1-17.97,40.08-40.06,40.08h-.02ZM192.32,93.44l51.09-4.65c6.9-.63,12.34-6.07,12.97-12.95l4.65-51.09c.73-8.07,6.07-14.97,13.68-17.72,7.59-2.75,16.12-.88,21.83,4.86l33.51,33.51c5.42,5.4,14.83,5.4,20.25,0l33.51-33.51c5.71-5.73,14.26-7.61,21.83-4.86,7.61,2.75,12.95,9.65,13.68,17.72l4.65,51.09c.63,6.88,6.09,12.32,12.97,12.95l51.11,4.65c8.05.75,14.97,6.07,17.72,13.68,2.75,7.61.85,16.12-4.86,21.85l-38.37,38.35c-4.07,4.07-9.4,6.09-14.74,6.09s-10.68-2.04-14.76-6.11c-8.13-8.15-8.13-21.35,0-29.5l6.88-6.86-6.73-.6c-26.94-2.46-48.27-23.79-50.73-50.73l-.6-6.76-2.04,2.04c-21.85,21.85-57.36,21.85-79.21,0l-2.04-2.04-.6,6.76c-2.46,26.94-23.79,48.27-50.73,50.73l-6.76.6,6.86,6.88c8.15,8.15,8.15,21.35,0,29.48-8.15,8.15-21.33,8.15-29.48,0l-38.32-38.35c-5.71-5.71-7.61-14.24-4.86-21.83,2.75-7.61,9.65-12.93,17.72-13.68h-.04ZM151.7,291.97c5.21,22.35-8.74,44.83-31.13,50.06-3.17.73-6.34,1.11-9.47,1.11-18.97,0-36.16-13.03-40.64-32.24l-2.38-10.22c-7.07-2.06-13.91-5.09-20.35-9.07-18.56-11.55-31.51-29.59-36.47-50.88-7.17-30.69-8.17-62.03-2.98-93.12l7.17-42.95c6.26-37.47,34.22-67.29,71.23-75.92l88.03-20.5c5.61-1.31,11.32-2.11,17.06-2.38,11.43-.46,21.25,8.36,21.79,19.87.52,11.51-8.36,21.27-19.87,21.79-3.15.15-6.34.58-9.51,1.31l-87.99,20.52c-20.56,4.8-36.07,21.35-39.55,42.18l-5.44,32.57,74.06-17.26c11.2-2.65,22.44,4.36,25.04,15.58,2.61,11.22-4.34,22.42-15.58,25.04l-11.45,2.67,4.73,20.31c2.61,11.22-4.34,22.42-15.58,25.04-1.58.38-3.19.54-4.75.54-9.47,0-18.04-6.51-20.29-16.12l-4.73-20.31-35.72,8.34c.08,14.53,1.61,29.02,4.96,43.35,2.44,10.43,8.78,19.29,17.87,24.92,9.11,5.67,19.87,7.44,30.26,4.98h.06l21.85-5.11c5.36-1.27,11.05-.33,15.74,2.61,4.71,2.92,8.05,7.59,9.3,12.97l4.73,20.33-.02-.02Z"></path></svg>