<svg xmlns="http://www.w3.org/2000/svg" id="Layer_1" viewBox="0 0 24 24"><defs><style>      .st0 {        fill: #144499;      }    </style></defs><path class="st0" d="M17.98,13.02c-1.12-1.12-2.81-1.32-4.14-.61l-4.83-4.83v-3.09c0-1.01-.55-1.96-1.42-2.46L4.6.32C3.67-.22,2.49-.06,1.73.7L.7,1.72C-.06,2.48-.21,3.66.33,4.6l1.72,2.98h0c.51.88,1.45,1.42,2.46,1.42h3.09l4.83,4.83c-.28.51-.43,1.08-.43,1.67,0,.94.36,1.81,1.03,2.48l5.01,5c.66.66,1.55,1.02,2.48,1.02.99,0,2.09-.52,2.72-1.29,1.13-1.37.98-3.48-.34-4.79l-4.91-4.9h0ZM3.78,6.58l-1.72-2.98c-.09-.15-.06-.34.06-.46l1.02-1.03c.12-.12.31-.15.46-.06l2.98,1.72c.26.15.42.43.42.73v2.5h-2.5c-.3,0-.58-.16-.73-.42ZM21.69,21.44c-.28.34-.67.53-1.1.56-.42.02-.84-.14-1.14-.44l-5.01-5c-.28-.28-.44-.66-.44-1.06s.16-.78.44-1.06c.29-.29.68-.44,1.07-.44s.77.15,1.07.44l4.91,4.9c.6.59.69,1.52.21,2.1h0ZM10.44,17.1c.39.39.39,1.02,0,1.41l-4.48,4.46c-.66.66-1.55,1.02-2.48,1.02s-2.09-.52-2.72-1.29c-1.12-1.37-.98-3.47.34-4.79l5.67-5.66c.39-.39,1.02-.39,1.41,0,.39.39.39,1.02,0,1.41l-5.67,5.66c-.6.59-.69,1.52-.21,2.1.28.34.67.53,1.1.56.43.02.84-.14,1.14-.44l4.48-4.46c.39-.39,1.02-.39,1.41,0h0ZM9.89,4.63C10.81,2.29,12.92.56,15.38.12c.86-.15,1.73-.16,2.58,0,.67.12,1.2.59,1.4,1.22.23.73,0,1.53-.61,2.14l-2.34,2.24c-.48.49-.56,1.26-.17,1.75.23.28.55.45.91.46.35.02.69-.11.95-.36l2.61-2.52c.49-.49,1.21-.67,1.89-.45.66.21,1.15.76,1.27,1.44.15.85.15,1.72,0,2.58-.28,1.57-1.1,3.04-2.31,4.12-.19.17-.43.26-.67.26-.27,0-.55-.11-.74-.33-.37-.41-.34-1.04.07-1.41.88-.79,1.47-1.85,1.68-2.99.1-.55.11-1.1.04-1.63l-2.44,2.36c-.64.64-1.53.98-2.45.94-.92-.05-1.78-.48-2.36-1.19-1.04-1.27-.9-3.23.31-4.44l2.33-2.24h0c-.53-.08-1.08-.06-1.62.03-1.79.32-3.31,1.58-3.98,3.28-.2.51-.78.77-1.3.57s-.77-.78-.56-1.3h0Z"></path></svg>