<svg xmlns="http://www.w3.org/2000/svg" id="Layer_1" viewBox="0 0 512 512"><defs><style>      .st0 {        fill: #144499;      }    </style></defs><path class="st0" d="M405.33,128h-42.67c-23.53,0-42.67,19.14-42.67,42.67v85.33h-22.02L91.05,7.68c-4.05-4.86-10.05-7.68-16.38-7.68h-10.67c-11.78,0-21.33,9.56-21.33,21.33v117.33c0,5.89-4.78,10.67-10.67,10.67h-10.67c-11.78,0-21.33,9.56-21.33,21.33s9.56,21.33,21.33,21.33h10.67c29.4,0,53.33-23.94,53.33-53.33v-71.21l157.12,188.54H64c-35.29,0-64,28.71-64,64v42.67c0,35.29,28.71,64,64,64h.79c-.51,3.52-.79,7.06-.79,10.67,0,41.17,33.49,74.67,74.67,74.67s74.67-33.49,74.67-74.67c0-3.61-.28-7.15-.79-10.67h86.91c-.51,3.52-.79,7.06-.79,10.67,0,41.17,33.49,74.67,74.67,74.67s74.67-33.49,74.67-74.67c0-4.42-.41-8.79-1.17-13.08,37.35-9.09,65.17-42.82,65.17-82.92v-106.67c0-58.82-47.85-106.67-106.67-106.67h0ZM405.33,170.67c35.29,0,64,28.71,64,64v21.33h-106.67v-85.33h42.67ZM42.67,362.67v-42.67c0-11.75,9.58-21.33,21.33-21.33h256v85.33H64c-11.75,0-21.33-9.58-21.33-21.33ZM170.67,437.33c0,17.64-14.36,32-32,32s-32-14.36-32-32c0-4.03.79-7.59,1.94-10.67h60.14c1.15,3.07,1.94,6.63,1.94,10.67h-.02ZM373.33,469.33c-17.64,0-32-14.36-32-32,0-4.03.79-7.59,1.94-10.67h60.14c1.15,3.07,1.94,6.63,1.94,10.67,0,17.64-14.36,32-32,32h-.02ZM426.67,384h-64v-85.33h106.67v42.67c0,23.53-19.14,42.67-42.67,42.67Z"></path></svg>