<svg xmlns="http://www.w3.org/2000/svg" id="Layer_1" viewBox="0 0 512 512"><defs><style>      .st0 {        fill: #144499;      }    </style></defs><path class="st0" d="M330.18,397.01c0-27.37-17.24-43.29-50.28-71.34-7.47-6.4-15.53-13.18-23.85-20.74-9.49,8.73-18.52,16.41-26.79,23.47-32.98,27.86-47.42,41.49-47.42,68.61.02,40.97,33.24,74.16,74.2,74.15,40.94-.02,74.13-33.2,74.15-74.15h0Z"></path><path class="st0" d="M350.04,86.08c-25.6-21.74-52.05-44.2-78.81-70.93l-15.23-15.15-14.93,15.17c-48.09,48.26-70.83,122.37-80.68,166.83-7.56-11.71-13.18-24.57-16.62-38.08l-9.11-34.92-26.3,24.68c-46.06,43.26-76.8,86.17-76.8,154.86-.91,101.99,67.69,191.52,166.4,217.17,12.05,3.05,24.33,5.16,36.71,6.29-55.4-10.32-95.6-58.63-95.68-114.99,0-48,28.95-72.53,62.46-101.16,11.97-10.18,25.6-21.72,39.36-35.56l15.19-15.1,15.1,15.1c12.29,12.29,24.58,22.7,36.46,32.81,33.62,28.52,65.37,55.47,65.37,103.91-.07,56.12-39.95,104.3-95.06,114.86,114.95-11.15,202.63-107.8,202.56-223.3,0-91.78-60.44-143.08-130.39-202.5Z"></path></svg>