<svg xmlns="http://www.w3.org/2000/svg" id="Camada_1" viewBox="0 0 409.6 409.6"><defs><style>      .st0 {        fill: #144499;        stroke: #144499;        stroke-miterlimit: 10;        stroke-width: 8px;      }    </style></defs><path class="st0" d="M395.56,152.72c0,.27-.1.53-.26.75-.97,1.32-1.32,3.17-1.75,4.72-15.97,56.61-30.21,113.74-46.68,170.19-.04.13-.09.25-.17.36-1.16,1.67-4.04,3.27-5.96,3.45-3.17.3-17.81-8.88-22.23-10.89-64.53-29.37-173.54-28.08-236.48,4.97-7.79,4.09-14.98,11.88-19.75-1.48-.01-.03-.02-.07-.03-.11L14.82,149.97c-.03-.12-.05-.25-.05-.38.1-4.31,3.6-7.11,6.36-9.85,42.84-42.6,121.84-61.4,180.68-61.73,23.6-.13,65.81,2.64,87.74,10.49,5.47,1.95,6.48,5.43,5.3,10.98-.02.1-.06.21-.1.3-7.91,16.31-16.8,32.28-23.99,48.86-.12.28-.13.59-.04.88l.55,1.67c.03.1.08.2.14.29l28.49,43.09c.08.12.15.26.18.4,1.1,4.53-2.07,11.27-4.08,16.23-.44,1.1.79,2.12,1.78,1.48,0,0,.02-.01.03-.02,1.11-.72,15.42-15,15.99-15.98.26-.44.61-.81.7-1.32.03-.16,0-.33-.06-.49l-13.73-42.44c-1.11-3.43.04-5.86,1.89-8.59,5.75-8.48,18.81-23.51,26.04-31.21,3.77-4.02,5.71-6.86,11.9-5.24,4.82,1.26,18.16,9.64,22.96,12.72,6.63,4.26,14.16,9.7,20.15,14.8,4.37,3.73,9.27,7.52,11.77,12.76.08.17.12.36.12.55v4.5ZM275.14,102.28c.07-.65-.4-1.23-1.05-1.33-13.91-1.97-27.71-4.72-41.75-5.8-68.96-5.31-146.16,9.1-199.12,55.59-.35.31-.5.79-.38,1.24l41.86,158.1c.2.75,1.03,1.12,1.72.78,19.99-9.87,41.25-16.59,63.21-20.66,41.64-7.73,89.51-7.73,131.15,0,21.98,4.08,43.22,10.79,63.22,20.67.69.34,1.52-.03,1.72-.77l42.46-157.22c.11-.42,0-.87-.3-1.18-10.53-10.9-24-18.5-36.91-26.27-.26-.16-.58-.21-.88-.15l-.98.2c-.29.06-.55.23-.73.47-6.48,8.79-14.53,16.46-20.51,25.57-.21.32-.26.71-.14,1.07l14.38,43.2c.07.21.08.45.03.67l-1.05,4.48c-.05.22-.16.42-.32.58l-48.55,48.99s-.08.08-.13.11c-5.81,4.68-13.11,1.44-13.51-5.94,0-.15.01-.31.06-.46l14.46-45.46c.11-.35.06-.74-.15-1.05l-29.31-44.3c-1.4-2.22-1.02-4.41-.28-6.75,4.14-13.07,16.75-28.86,21.15-42.05.27-.81.54-1.53.62-2.32Z"></path><path class="st0" d="M112.36,143.94c.08-.15.18-.29.31-.4,6.18-5.31,16.04,1.39,12.61,9.63l-31.71,63.36s-.05.1-.08.14c-5.11,7.96-16.24,4.03-14.99-5.14.02-.14.06-.28.13-.41l33.74-67.18Z"></path><path class="st0" d="M83.77,142.15c6.06-1.4,10.49,2.5,10.34,8.51,0,.18-.05.36-.13.52l-16.07,33.45c-5.16,8.82-17.25,4.62-15.16-5.5.78-3.8,13.26-28.48,15.88-32.45,1.17-1.77,2.97-4.03,5.13-4.53Z"></path></svg>