<svg xmlns="http://www.w3.org/2000/svg" id="Camada_1" viewBox="0 0 409.6 409.6"><defs><style>      .st0 {        fill: #144499;      }    </style></defs><path class="st0" d="M395.79,155.2l-.06-.29C376.35,80.66,315.16,23.77,239.83,9.97l-21.57-3.31-30.63-.05-33.56,6.06-.28.06c-36.32,9.3-69.33,28.88-95.47,56.63-26.28,27.89-43.76,62.12-50.57,98.96-5.56,30.11-4.12,61.64,4.18,91.2,7.95,28.35,22.23,54.97,41.37,77.19-.69.65-1.44,1.33-2.01,1.86-2.3,2.11-3.75,3.45-4.54,4.49-9.99,13.19-10.78,30.15-2.04,44.27,5.91,9.56,14.44,13.27,23.46,17.19l1,.44h266.16l.42-.09c13.86-3.04,24.97-12.52,29.7-25.35,4.54-12.33,2.44-25.62-5.78-36.46-.79-1.04-2.24-2.39-4.54-4.49-.58-.53-1.33-1.22-2.02-1.87,24.23-28.27,40.23-62.37,46.35-98.84.34-2.04.55-4.09.75-6.07.35-3.4.67-6.61,1.62-9.56l.19-.58v-32.24l-6.21-34.23ZM76.62,374.3c-5.31-.61-7.2-4.44-7.2-7.56,0-3.16,1.93-7.04,7.38-7.58,1.62-.16,3.41-.22,5.29-.22,3.43,0,7.19.21,10.86.41,7.54.42,15.33.85,21.42-.38,6.97-1.42,11.78-7.35,11.96-14.75.18-7.37-4.32-13.49-11.2-15.24-3.84-.98-9.46-.68-15.4-.36-3.98.21-9.91.53-11.84-.06-1.74-1.48-8.42-8.39-10.04-10.19-42.12-46.85-54.16-110.57-32.19-170.46,21.93-59.78,72.1-100.51,134.21-108.96,70.37-9.57,135.59,23.25,170.21,85.66,34.44,62.08,27.75,134.45-17.45,188.89-2.95,3.56-11.86,13.49-13.96,15.01-1.79.65-7.9.32-11.98.11-5.95-.32-11.57-.62-15.4.36-6.88,1.75-11.38,7.88-11.2,15.24.18,7.4,4.99,13.33,11.96,14.75,6.13,1.25,13.81.79,21.23.34,5.98-.36,12.17-.73,16.98-.14,1.13.14,3.92,1.46,4.66,2.2h0c2.04,2.04,2.71,4.74,1.83,7.41-.94,2.87-3.36,4.95-6.33,5.49l-253.78.02Z"></path><path class="st0" d="M317.13,267.72c23.24-41.61,21.81-90.71-3.82-131.36-12.2-19.35-29.14-35.23-48.97-45.91-21.03-11.32-44.94-16.49-69.16-14.95-44.92,2.87-84.66,28.25-106.32,67.9-21.32,39.03-21.17,85.5.4,124.31,23.23,41.81,65.73,66.8,113.68,66.85.05,0,.1,0,.15,0,48.03,0,90.66-24.98,114.04-66.84ZM116.19,237.53c-1.67,1.6-3.38,3.23-5.07,4.9-9.93-23.49-9.94-51.19-.04-74.69,1.84,1.84,3.77,3.66,5.66,5.45,8.16,7.69,16.59,15.64,18.48,25.53,3.34,17.46-7.03,27.36-19.04,38.82ZM165.85,295.58c.31-.29.59-.54.82-.76,1.64-1.55,3.29-3.17,4.88-4.75,9.02-8.89,18.35-18.08,30.85-18.39,13.71-.38,22.72,8.86,32.25,18.59,2.07,2.12,4.19,4.28,6.37,6.36-21.31,8.92-46.4,9.81-69.76,2.31-2.73-.88-4.94-1.64-6.6-2.26.46-.43.88-.83,1.18-1.1ZM162.6,255.8c-1.79,1.51-6.16,6.07-11.23,11.36-4.18,4.37-10.12,10.56-13,13.24-2.87-2.31-8.35-7.93-10.98-11.12,2.95-3.32,10.16-10.29,14.78-14.75,5.59-5.4,9.08-8.79,10.39-10.37,18.44-22.3,18.44-55.94,0-78.24-1.58-1.91-6.41-6.55-12-11.93-4.4-4.23-10.66-10.25-13.33-13.13,2.29-2.87,7.9-8.35,11.09-11.01,3.31,2.95,10.19,10.1,14.6,14.68,5.04,5.23,8.21,8.51,9.68,9.75,23.15,19.52,58.05,19.52,81.2,0,1.79-1.51,6.16-6.07,11.22-11.35,4.19-4.37,10.13-10.57,13.01-13.24,2.87,2.31,8.35,7.93,10.98,11.12-2.95,3.32-10.16,10.29-14.78,14.75-5.59,5.4-9.08,8.79-10.39,10.37-18.44,22.3-18.44,55.94,0,78.24,1.58,1.91,6.41,6.55,12.01,11.93,4.4,4.23,10.66,10.24,13.33,13.13-2.29,2.87-7.9,8.36-11.09,11.01-3.3-2.95-10.16-10.07-14.56-14.64-5.06-5.25-8.23-8.54-9.72-9.79-23.14-19.51-58.05-19.51-81.2,0ZM240.99,113.41c-2.2,2.09-4.36,4.31-6.47,6.48-7.72,7.94-15.71,16.16-25.6,17.9-16.61,2.93-26.19-6.81-37.29-18.08-2.05-2.08-4.14-4.21-6.32-6.28,9.56-4.03,20.46-6.51,31.89-7.22,14.9-.93,30.54,1.68,43.8,7.21ZM290.21,172.54c1.67-1.6,3.38-3.23,5.07-4.9,9.93,23.49,9.95,51.19.04,74.69-1.84-1.84-3.77-3.66-5.66-5.45-8.16-7.69-16.59-15.64-18.48-25.53-3.34-17.46,7.03-27.36,19.04-38.82Z"></path><path class="st0" d="M199.46,178.47c-16.79,2.21-24.03,16.61-22.5,29.7,1.39,11.82,10.02,23.75,25.8,23.75,1.11,0,2.25-.06,3.43-.18,9.71-1,17.4-6.43,21.1-14.9,4.03-9.24,2.71-20.81-3.3-28.79-5.65-7.51-14.36-10.91-24.53-9.57Z"></path></svg>