<svg xmlns="http://www.w3.org/2000/svg" id="Layer_1" viewBox="0 0 512 512"><defs><style>      .st0 {        fill: #144499;      }    </style></defs><path class="st0" d="M149.33,298.67c0,11.78-9.55,21.33-21.33,21.33h-21.33c-11.78,0-21.33-9.55-21.33-21.33s9.55-21.33,21.33-21.33h21.33c11.78,0,21.33,9.55,21.33,21.33ZM234.67,277.33h-21.33c-11.78,0-21.33,9.55-21.33,21.33s9.55,21.33,21.33,21.33h21.33c11.78,0,21.33-9.55,21.33-21.33s-9.55-21.33-21.33-21.33ZM128,362.67h-21.33c-11.78,0-21.33,9.55-21.33,21.33s9.55,21.33,21.33,21.33h21.33c11.78,0,21.33-9.55,21.33-21.33s-9.55-21.33-21.33-21.33ZM234.67,362.67h-21.33c-11.78,0-21.33,9.55-21.33,21.33s9.55,21.33,21.33,21.33h21.33c11.78,0,21.33-9.55,21.33-21.33s-9.55-21.33-21.33-21.33ZM128,106.67h-21.33c-11.78,0-21.33,9.55-21.33,21.33s9.55,21.33,21.33,21.33h21.33c11.78,0,21.33-9.55,21.33-21.33s-9.55-21.33-21.33-21.33ZM234.67,106.67h-21.33c-11.78,0-21.33,9.55-21.33,21.33s9.55,21.33,21.33,21.33h21.33c11.78,0,21.33-9.55,21.33-21.33s-9.55-21.33-21.33-21.33ZM128,192h-21.33c-11.78,0-21.33,9.55-21.33,21.33s9.55,21.33,21.33,21.33h21.33c11.78,0,21.33-9.55,21.33-21.33s-9.55-21.33-21.33-21.33ZM234.67,192h-21.33c-11.78,0-21.33,9.55-21.33,21.33s9.55,21.33,21.33,21.33h21.33c11.78,0,21.33-9.55,21.33-21.33s-9.55-21.33-21.33-21.33ZM512,213.33v192c-.07,58.88-47.79,106.6-106.67,106.67H106.67c-58.88-.07-106.6-47.79-106.67-106.67V106.67C.07,47.79,47.79.07,106.67,0h128c58.88.07,106.6,47.79,106.67,106.67h64c58.88.07,106.6,47.79,106.67,106.67ZM106.67,469.33h192V106.67c0-35.35-28.65-64-64-64H106.67c-35.35,0-64,28.65-64,64v298.67c0,35.35,28.65,64,64,64ZM469.33,213.33c0-35.35-28.65-64-64-64h-64v320h64c35.35,0,64-28.65,64-64v-192ZM405.33,277.33c-11.78,0-21.33,9.55-21.33,21.33s9.55,21.33,21.33,21.33,21.33-9.55,21.33-21.33-9.55-21.33-21.33-21.33ZM405.33,362.67c-11.78,0-21.33,9.55-21.33,21.33s9.55,21.33,21.33,21.33,21.33-9.55,21.33-21.33-9.55-21.33-21.33-21.33ZM405.33,192c-11.78,0-21.33,9.55-21.33,21.33s9.55,21.33,21.33,21.33,21.33-9.55,21.33-21.33-9.55-21.33-21.33-21.33Z"></path></svg>