<svg xmlns="http://www.w3.org/2000/svg" id="Layer_1" viewBox="0 0 512 512"><defs><style>      .st0 {        fill: #144499;      }    </style></defs><path class="st0" d="M426.67,149.33h-37.08c24.42-21.53,38.01-52.79,37.08-85.33,0-11.78-9.55-21.33-21.33-21.33s-21.33,9.55-21.33,21.33c0,55.94-50.58,75.31-89.05,81.94,14.2-25.17,22.74-53.13,25.05-81.94,0-35.35-28.65-64-64-64s-64,28.65-64,64c2.3,28.81,10.85,56.77,25.05,81.94-38.46-6.63-89.05-26.01-89.05-81.94,0-11.78-9.55-21.33-21.33-21.33s-21.33,9.55-21.33,21.33c-.93,32.54,12.66,63.81,37.08,85.33h-37.08C38.21,149.33,0,187.54,0,234.67v21.33c0,23.56,19.1,42.67,42.67,42.67v106.67c.07,58.88,47.79,106.6,106.67,106.67h213.33c58.88-.07,106.6-47.79,106.67-106.67v-106.67c23.56,0,42.67-19.1,42.67-42.67v-21.33c0-47.13-38.21-85.33-85.33-85.33ZM256,42.67c11.78,0,21.33,9.55,21.33,21.33-2.58,22.67-9.84,44.56-21.33,64.28-11.49-19.71-18.76-41.6-21.33-64.28,0-11.78,9.55-21.33,21.33-21.33ZM42.67,234.67c0-23.56,19.1-42.67,42.67-42.67h149.33v64H42.67v-21.33ZM85.33,405.33v-106.67h149.33v170.67h-85.33c-35.35,0-64-28.65-64-64ZM426.67,405.33c0,35.35-28.65,64-64,64h-85.33v-170.67h149.33v106.67ZM277.33,256v-64h149.33c23.56,0,42.67,19.1,42.67,42.67v21.33h-192Z"></path></svg>