<svg xmlns="http://www.w3.org/2000/svg" id="Layer_1" viewBox="0 0 512 512"><defs><style>      .st0 {        fill: #144499;      }    </style></defs><path class="st0" d="M320,53.33c0-29.46,23.87-53.33,53.33-53.33s53.33,23.87,53.33,53.33-23.87,53.33-53.33,53.33-53.33-23.87-53.33-53.33ZM511.99,21.33v54.68c0,19.05-8.4,36.97-23.04,49.17l-41.06,34.24c0,.19.11.36.11.58v330.65c0,11.8-9.54,21.33-21.33,21.33s-21.33-9.54-21.33-21.33v-127.99h-64v127.99c0,11.8-9.54,21.33-21.33,21.33s-21.33-9.54-21.33-21.33V159.99c0-.19.11-.36.11-.58l-41.09-34.24c-14.63-12.18-23.04-30.12-23.04-49.17V21.33c0-11.8,9.56-21.33,21.33-21.33s21.33,9.54,21.33,21.33v54.68c0,6.36,2.79,12.31,7.66,16.38l42.73,35.6h91.2l42.71-35.6c4.89-4.05,7.68-10.03,7.68-16.38V21.33c0-11.8,9.54-21.33,21.33-21.33s21.33,9.54,21.33,21.33h.04ZM74.67,106.66c29.46,0,53.33-23.87,53.33-53.33S104.13,0,74.67,0,21.34,23.87,21.34,53.33s23.87,53.33,53.33,53.33ZM256,255.99c0,11.8-9.56,21.33-21.33,21.33h-39.42c-14.72,0-28.93-6.17-39-16.94l-28.24-30.25v72.47c0,27.77-17.9,51.24-42.66,60.07v127.99c0,11.8-9.56,21.33-21.33,21.33s-21.33-9.54-21.33-21.33v-127.99C17.91,353.84.01,330.38.01,302.6v-110.59c0-35.28,28.71-64,64-64,20.63,0,38.8,9.96,50.52,25.17l72.91,78.1c2.01,2.18,4.86,3.39,7.81,3.39h39.42c11.78,0,21.33,9.54,21.33,21.33v-.02Z"></path></svg>