<svg xmlns="http://www.w3.org/2000/svg" id="Layer_1" viewBox="0 0 512 512"><defs><style>      .st0 {        fill: #144499;      }    </style></defs><path class="st0" d="M490.67,234.67c11.78,0,21.33-9.55,21.33-21.33s-9.55-21.33-21.33-21.33h-29.87l-16.43-52.93c-12.25-39.85-46.74-68.8-88.11-73.96C339.72,25.73,301.21.09,258.5,0h-4.99c-42.71.09-81.22,25.73-97.77,65.11-41.35,5.18-75.81,34.12-88.06,73.94l-16.47,52.95h-29.87c-11.78,0-21.33,9.55-21.33,21.33s9.55,21.33,21.33,21.33h16.66l-15.25,49.07c-31.85,34.06-30.06,87.49,3.99,119.35,4.83,4.52,10.18,8.46,15.93,11.73v33.19c0,35.35,28.65,64,64,64s64-28.65,64-64v-21.33h170.67v21.33c0,35.35,28.65,64,64,64s64-28.65,64-64v-33.19c40.53-23.07,54.68-74.62,31.61-115.15-3.26-5.73-7.18-11.06-11.69-15.88l-15.25-49.11h16.66ZM253.5,42.67h4.99c18.14.04,35.41,7.79,47.49,21.33h-99.97c12.07-13.55,29.34-21.3,47.49-21.33ZM108.44,151.68c8.23-26.82,33.04-45.1,61.1-45.01h172.93c28.07-.09,52.89,18.2,61.12,45.03l32.68,105.26c-3.18-.5-6.38-.82-9.6-.96H85.33c-3.22.14-6.42.46-9.6.96l32.7-105.28ZM128,448c0,11.78-9.55,21.33-21.33,21.33s-21.33-9.55-21.33-21.33v-21.33h42.67v21.33ZM426.67,448c0,11.78-9.55,21.33-21.33,21.33s-21.33-9.55-21.33-21.33v-21.33h42.67v21.33ZM426.67,384H85.33c-23.56,0-42.67-19.1-42.67-42.67s19.1-42.67,42.67-42.67v21.33c0,11.78,9.55,21.33,21.33,21.33s21.33-9.55,21.33-21.33v-21.33h256v21.33c0,11.78,9.55,21.33,21.33,21.33s21.33-9.55,21.33-21.33v-21.33c23.56,0,42.67,19.1,42.67,42.67s-19.1,42.67-42.67,42.67Z"></path></svg>